<svg width="23" height="23" viewBox="0 0 23 23" fill="none" stroke="none" xmlns="http://www.w3.org/2000/svg">
<path d="M19.9562 3.75872C19.9461 3.58593 19.873 3.42286 19.7506 3.30047C19.6282 3.17808 19.4651 3.10489 19.2923 3.0948C12.571 2.70016 7.18726 4.7237 4.89179 8.52006C4.09612 9.81869 3.70403 11.3244 3.76525 12.8461C3.80521 13.8193 4.00321 14.7794 4.35148 15.689C4.37194 15.745 4.40624 15.7949 4.45118 15.834C4.49611 15.8732 4.55023 15.9003 4.60848 15.9129C4.66673 15.9255 4.72723 15.9232 4.78433 15.9061C4.84143 15.889 4.89328 15.8578 4.93505 15.8152L12.4395 8.19604C12.5051 8.13042 12.583 8.07837 12.6687 8.04285C12.7545 8.00734 12.8464 7.98906 12.9392 7.98906C13.032 7.98906 13.1239 8.00734 13.2096 8.04285C13.2953 8.07837 13.3733 8.13042 13.4389 8.19604C13.5045 8.26167 13.5566 8.33957 13.5921 8.42531C13.6276 8.51105 13.6459 8.60295 13.6459 8.69575C13.6459 8.78855 13.6276 8.88045 13.5921 8.96619C13.5566 9.05193 13.5045 9.12983 13.4389 9.19546L5.23788 17.5201L3.98508 18.7729C3.8548 18.8997 3.77701 19.0709 3.7672 19.2525C3.75738 19.4341 3.81626 19.6127 3.93211 19.7529C3.99556 19.8263 4.07348 19.8859 4.16099 19.928C4.24851 19.97 4.34375 19.9935 4.44076 19.9971C4.53778 20.0006 4.63449 19.9841 4.72485 19.9487C4.81521 19.9132 4.89729 19.8594 4.96596 19.7908L6.4483 18.3085C7.69668 18.9124 8.95654 19.2417 10.2058 19.2858C10.3041 19.2893 10.4021 19.2911 10.4998 19.2911C11.9225 19.2948 13.3181 18.9029 14.531 18.1593C18.3273 15.8638 20.3518 10.4809 19.9562 3.75872Z" fill="#00B9D1"/>
</svg>
