<svg width="77" height="23" viewBox="0 0 77 23" fill="none" xmlns="http://www.w3.org/2000/svg">
<path d="M19.9563 3.75872C19.9462 3.58593 19.873 3.42286 19.7506 3.30047C19.6282 3.17808 19.4652 3.10489 19.2924 3.0948C12.5711 2.70016 7.18731 4.7237 4.89185 8.52006C4.09617 9.81869 3.70408 11.3244 3.7653 12.8461C3.80526 13.8193 4.00326 14.7794 4.35153 15.689C4.37199 15.745 4.40629 15.7949 4.45123 15.834C4.49617 15.8732 4.55028 15.9003 4.60854 15.9129C4.66679 15.9255 4.72728 15.9232 4.78438 15.9061C4.84149 15.889 4.89334 15.8578 4.93511 15.8152L12.4395 8.19604C12.5051 8.13042 12.583 8.07837 12.6688 8.04285C12.7545 8.00734 12.8464 7.98906 12.9392 7.98906C13.032 7.98906 13.1239 8.00734 13.2097 8.04285C13.2954 8.07837 13.3733 8.13042 13.4389 8.19604C13.5046 8.26167 13.5566 8.33957 13.5921 8.42531C13.6276 8.51105 13.6459 8.60295 13.6459 8.69575C13.6459 8.78855 13.6276 8.88045 13.5921 8.96619C13.5566 9.05193 13.5046 9.12983 13.4389 9.19546L5.23793 17.5201L3.98514 18.7729C3.85485 18.8997 3.77706 19.0709 3.76725 19.2525C3.75744 19.4341 3.81631 19.6127 3.93217 19.7529C3.99561 19.8263 4.07353 19.8859 4.16105 19.928C4.24856 19.97 4.3438 19.9935 4.44082 19.9971C4.53783 20.0006 4.63454 19.9841 4.7249 19.9487C4.81526 19.9132 4.89734 19.8594 4.96601 19.7908L6.44835 18.3085C7.69673 18.9124 8.95659 19.2417 10.2059 19.2858C10.3041 19.2893 10.4021 19.2911 10.4998 19.2911C11.9225 19.2948 13.3182 18.9029 14.531 18.1593C18.3274 15.8638 20.3518 10.4809 19.9563 3.75872Z" fill="#00B9D1"/>
<path fill-rule="evenodd" clip-rule="evenodd" d="M76.0942 0.628113H73.8773V8.75055C72.9944 7.83497 71.9938 7.37719 70.8755 7.37719C69.5872 7.37719 68.5179 7.85786 67.6677 8.81921C66.811 9.77402 66.3827 10.9643 66.3827 12.3899C66.3827 13.8483 66.811 15.0647 67.6677 16.0392C68.531 16.994 69.6166 17.4714 70.9245 17.4714C72.0232 17.4714 73.0075 17.0463 73.8773 16.1961V17.1967H76.0942V0.628113ZM69.3746 14.6266C68.8841 14.0511 68.6389 13.3055 68.6389 12.3899C68.6389 11.5332 68.8907 10.8139 69.3942 10.2318C69.9043 9.65631 70.5387 9.36856 71.2973 9.36856C72.1017 9.36856 72.7557 9.65304 73.2592 10.222C73.7628 10.804 74.0146 11.543 74.0146 12.439C74.0146 13.3349 73.7628 14.0739 73.2592 14.656C72.7557 15.2184 72.0952 15.4996 71.2777 15.4996C70.5125 15.4996 69.8782 15.2086 69.3746 14.6266ZM55.7784 8.82902C54.7909 9.79691 54.2971 10.9708 54.2971 12.3507C54.2971 13.8156 54.7811 15.032 55.749 15.9999C56.7168 16.9809 57.9169 17.4714 59.3491 17.4714C60.7944 17.4714 62.0141 16.9907 63.0081 16.0293C63.9956 15.0615 64.4894 13.8614 64.4894 12.4292C64.4894 11.01 63.9989 9.81326 63.0179 8.83883C62.0239 7.8644 60.814 7.37719 59.3883 7.37719C57.9692 7.37719 56.7659 7.86113 55.7784 8.82902ZM57.3185 14.656C56.8084 14.1001 56.5533 13.3448 56.5533 12.3899C56.5533 11.5005 56.8149 10.7746 57.3381 10.2122C57.8613 9.64977 58.5447 9.36856 59.3883 9.36856C60.2451 9.36856 60.935 9.64977 61.4582 10.2122C61.9748 10.7681 62.2332 11.5103 62.2332 12.439C62.2332 13.3676 61.9748 14.1099 61.4582 14.6658C60.9415 15.2217 60.2516 15.4996 59.3883 15.4996C58.5316 15.4996 57.8417 15.2184 57.3185 14.656ZM51.9624 16.9711C51.9624 17.4223 51.9461 17.818 51.9134 18.158C51.8872 18.5047 51.848 18.8088 51.7957 19.0704C51.6387 19.7897 51.3313 20.4077 50.8735 20.9244C50.0103 21.9184 48.8233 22.4155 47.3126 22.4155C46.0374 22.4155 44.9877 22.0721 44.1637 21.3854C43.3135 20.6791 42.8231 19.7014 42.6923 18.4523H44.9093C44.9943 18.9232 45.1349 19.2862 45.3311 19.5412C45.7889 20.1363 46.4559 20.4339 47.3322 20.4339C48.9476 20.4339 49.7552 19.4431 49.7552 17.4616V16.1274C48.8789 17.0234 47.8685 17.4714 46.724 17.4714C45.4226 17.4714 44.3566 17.0005 43.5261 16.0588C42.689 15.104 42.2704 13.9104 42.2704 12.4782C42.2704 11.0853 42.6596 9.90155 43.4378 8.92712C44.2749 7.89383 45.3801 7.37719 46.7535 7.37719C47.9568 7.37719 48.9574 7.82516 49.7552 8.72112V7.64205H51.9624V16.9711ZM49.8435 12.439C49.8435 11.5103 49.595 10.7681 49.098 10.2122C48.5944 9.64323 47.9503 9.35875 47.1655 9.35875C46.3284 9.35875 45.6679 9.66939 45.1839 10.2907C44.7458 10.8466 44.5267 11.5659 44.5267 12.4488C44.5267 13.3186 44.7458 14.0314 45.1839 14.5873C45.6613 15.1955 46.3218 15.4996 47.1655 15.4996C48.0091 15.4996 48.6762 15.1922 49.1667 14.5775C49.6179 14.0216 49.8435 13.3088 49.8435 12.439ZM29.0372 7.64205H26.83V17.1967H29.0372V12.2624C29.0372 11.2618 29.1778 10.5294 29.459 10.065C29.7467 9.60072 30.2013 9.36856 30.8225 9.36856C31.8035 9.36856 32.294 10.2187 32.294 11.9191V17.1967H34.511V12.2624C34.511 11.2487 34.6483 10.513 34.923 10.0552C35.2042 9.59745 35.6489 9.36856 36.2571 9.36856C36.7803 9.36856 37.1563 9.56148 37.3852 9.94733C37.6076 10.3266 37.7187 10.9741 37.7187 11.8896V17.1967H39.9357V11.2913C39.9357 8.68188 38.8599 7.37719 36.7084 7.37719C35.5246 7.37719 34.5862 7.84805 33.893 8.78978C33.2651 7.84805 32.4117 7.37719 31.3326 7.37719C30.8487 7.37719 30.4465 7.45893 30.126 7.62243C29.8252 7.77938 29.4623 8.08022 29.0372 8.52492V7.64205Z" fill="#00B9D1"/>
</svg>