<svg viewBox="0 0 20 20" fill="none" xmlns="http://www.w3.org/2000/svg">
<path fill-rule="evenodd" clip-rule="evenodd" d="M14.9944 5.87398C14.9944 5.41648 14.6244 5.04398 14.166 5.04148L7.50521 4.99982H7.50021C7.04188 4.99982 6.67021 5.36982 6.66688 5.82815C6.66354 6.28815 7.03438 6.66398 7.49521 6.66648L12.1269 6.69565L5.24438 13.5773C4.91854 13.9031 4.91854 14.4306 5.24438 14.7556C5.40688 14.919 5.62021 14.9998 5.83354 14.9998C6.04688 14.9998 6.26021 14.919 6.42271 14.7556L13.3294 7.84898L13.3335 12.5007C13.3335 12.9607 13.7069 13.3331 14.1669 13.3331H14.1677C14.6277 13.3331 15.0002 12.959 15.0002 12.499L14.9944 5.87398Z" fill="#888888"/>
</svg>