<svg viewBox="0 0 24 24" fill="none" xmlns="http://www.w3.org/2000/svg">
<path fill-rule="evenodd" clip-rule="evenodd" d="M11.9995 1C5.9255 1 0.999496 5.82 0.999496 11.767C0.999496 16.522 4.1515 20.558 8.5225 21.981C9.0735 22.08 9.2735 21.748 9.2735 21.462C9.2735 21.207 9.2645 20.529 9.2595 19.632C6.1995 20.282 5.5545 18.188 5.5545 18.188C5.0535 16.944 4.3325 16.613 4.3325 16.613C3.3335 15.945 4.4085 15.959 4.4085 15.959C5.5125 16.035 6.0925 17.068 6.0925 17.068C7.0735 18.714 8.6665 18.238 9.2945 17.963C9.3945 17.268 9.6775 16.793 9.9925 16.523C7.5495 16.252 4.9815 15.328 4.9815 11.203C4.9815 10.028 5.4105 9.067 6.1145 8.314C6.0005 8.042 5.6235 6.947 6.2215 5.465C6.2215 5.465 7.1455 5.176 9.2475 6.568C10.1245 6.329 11.0655 6.211 12.0005 6.206C12.9345 6.211 13.8755 6.329 14.7545 6.568C16.8545 5.176 17.7765 5.465 17.7765 5.465C18.3765 6.947 17.9995 8.042 17.8855 8.314C18.5905 9.067 19.0165 10.028 19.0165 11.203C19.0165 15.339 16.4445 16.249 13.9945 16.516C14.3895 16.848 14.7405 17.505 14.7405 18.509C14.7405 19.948 14.7275 21.109 14.7275 21.462C14.7275 21.75 14.9255 22.085 15.4835 21.98C19.8505 20.554 22.9995 16.521 22.9995 11.767C22.9995 5.82 18.0745 1 11.9995 1Z" fill="currentColor"/>
</svg>
