<svg viewBox="0 0 40 40" fill="none" xmlns="http://www.w3.org/2000/svg">
  <path fill-rule="evenodd" clip-rule="evenodd" d="M31.707 9.70215L34.2319 7.17732C34.4271 6.98206 34.4271 6.66548 34.2319 6.47021L33.5248 5.76311C33.3295 5.56785 33.0129 5.56785 32.8177 5.76311L30.2928 8.28799C27.551 6.23252 23.6442 6.45156 21.1507 8.9451L18.3223 11.7735C17.9317 12.1641 17.9317 12.7972 18.3223 13.1877L26.8076 21.673C27.1981 22.0635 27.8312 22.0635 28.2218 21.673L31.0502 18.8446C33.5438 16.3509 33.7628 12.444 31.707 9.70215ZM29.6035 10.3271L29.6682 10.3918C31.5885 12.3469 31.5778 15.4886 29.636 17.4304L27.5147 19.5517L20.4436 12.4806L22.5649 10.3593C24.5067 8.41748 27.6484 8.40675 29.6035 10.3271ZM16.728 17.7071C17.1185 17.3166 17.7517 17.3166 18.1422 17.7071C18.5327 18.0976 18.5327 18.7308 18.1422 19.1213L16.0209 21.2426L18.8493 24.0709L20.9706 21.9495C21.3612 21.559 21.9943 21.559 22.3849 21.9495C22.7754 22.3401 22.7754 22.9732 22.3849 23.3638L20.2635 25.4851L21.6778 26.8994C22.0683 27.2899 22.0683 27.9231 21.6778 28.3136L18.8493 31.1421C16.3558 33.6356 12.4491 33.8546 9.70724 31.7992L7.18236 34.3241C6.9871 34.5193 6.67052 34.5193 6.47526 34.3241L5.76815 33.6169C5.57289 33.4217 5.57289 33.1051 5.76815 32.9098L8.29298 30.385C6.23723 27.6432 6.45618 23.7362 8.94983 21.2426L11.7783 18.4141C12.1688 18.0236 12.8019 18.0236 13.1925 18.4141L14.6067 19.8284L16.728 17.7071ZM13.8905 21.9406L12.4854 20.5355L10.364 22.6568C8.42221 24.5986 8.41148 27.7403 10.3318 29.6954L10.3965 29.76C12.3516 31.6804 15.4933 31.6697 17.4351 29.7278L19.5564 27.6065L13.9087 21.9588L13.8995 21.9497L13.8905 21.9406Z" fill="black" />
</svg>