<svg viewBox="0 0 40 40" fill="none" xmlns="http://www.w3.org/2000/svg">
  <path fill-rule="evenodd" clip-rule="evenodd" d="M29.874 11C29.4299 9.27477 27.8638 8 26 8C24.1362 8 22.5701 9.27477 22.126 11H8C7.44772 11 7 11.4477 7 12C7 12.5523 7.44772 13 8 13H22.126C22.5701 14.7252 24.1362 16 26 16C27.8638 16 29.4299 14.7252 29.874 13H32C32.5523 13 33 12.5523 33 12C33 11.4477 32.5523 11 32 11H29.874ZM28 12C28 13.1046 27.1046 14 26 14C24.8954 14 24 13.1046 24 12C24 10.8954 24.8954 10 26 10C27.1046 10 28 10.8954 28 12Z" fill="black" />
  <path fill-rule="evenodd" clip-rule="evenodd" d="M8 19C7.44772 19 7 19.4477 7 20C7 20.5523 7.44772 21 8 21H9.12602C9.57006 22.7252 11.1362 24 13 24C14.8638 24 16.4299 22.7252 16.874 21H32C32.5523 21 33 20.5523 33 20C33 19.4477 32.5523 19 32 19H16.874C16.4299 17.2748 14.8638 16 13 16C11.1362 16 9.57006 17.2748 9.12602 19H8ZM13 18C14.1046 18 15 18.8954 15 20C15 21.1046 14.1046 22 13 22C11.8954 22 11 21.1046 11 20C11 18.8954 11.8954 18 13 18Z" fill="black" />
  <path fill-rule="evenodd" clip-rule="evenodd" d="M7 28C7 27.4477 7.44772 27 8 27H20.126C20.5701 25.2748 22.1362 24 24 24C25.8638 24 27.4299 25.2748 27.874 27H32C32.5523 27 33 27.4477 33 28C33 28.5523 32.5523 29 32 29H27.874C27.4299 30.7252 25.8638 32 24 32C22.1362 32 20.5701 30.7252 20.126 29H8C7.44772 29 7 28.5523 7 28ZM26 28C26 26.8954 25.1046 26 24 26C22.8954 26 22 26.8954 22 28C22 29.1046 22.8954 30 24 30C25.1046 30 26 29.1046 26 28Z" fill="black" />
</svg>