<svg viewBox="0 0 40 40" fill="none" xmlns="http://www.w3.org/2000/svg">
  <path fill-rule="evenodd" clip-rule="evenodd" d="M27.9329 14.64H24.3471C23.7948 14.64 23.3471 14.1923 23.3471 13.64C23.3471 13.0877 23.7948 12.64 24.3471 12.64H30.3471C30.8994 12.64 31.3471 13.0877 31.3471 13.64V19.64C31.3471 20.1923 30.8994 20.64 30.3471 20.64C29.7948 20.64 29.3471 20.1923 29.3471 19.64V16.0542L22.0542 23.3471C21.6976 23.7037 21.1313 23.739 20.7332 23.4294L16.93 20.4713L10.7613 26.64C10.3708 27.0305 9.73765 27.0305 9.34712 26.64C8.9566 26.2495 8.9566 25.6163 9.34712 25.2258L16.14 18.4329C16.4966 18.0763 17.063 18.041 17.4611 18.3506L21.2642 21.3087L27.9329 14.64Z" fill="black" />
</svg>